<svg width="187" height="209" viewBox="0 0 187 209" fill="none" xmlns="http://www.w3.org/2000/svg">
<path fill-rule="evenodd" clip-rule="evenodd" d="M53.6673 -72.9188C80.4975 -74.0697 108.669 -77.3842 131.593 -61.346C155.447 -44.6573 170.516 -15.5463 179.216 14.918C187.933 45.4398 190.738 79.1465 180.215 108.909C170.064 137.623 145.85 154.616 123.612 172.196C101.965 189.309 79.9415 208.013 53.6673 208.953C26.9571 209.909 1.57304 196.145 -19.5193 177.316C-40.0985 158.946 -55.3137 133.805 -62.6699 105.102C-69.8793 76.9725 -67.4632 47.3905 -60.0054 19.3459C-52.4307 -9.13797 -41.3256 -37.6398 -20.1375 -54.8375C0.915169 -71.9253 27.8982 -71.8135 53.6673 -72.9188Z" fill="#21BCD1"/>
</svg>
