<svg width="93" height="102" viewBox="0 0 93 102" fill="none" xmlns="http://www.w3.org/2000/svg">
<path fill-rule="evenodd" clip-rule="evenodd" d="M54.1577 0.469903C66.1996 -0.0303049 78.8435 -1.47087 89.1323 5.49979C99.8384 12.7532 106.602 25.4057 110.506 38.6463C114.419 51.912 115.678 66.5619 110.955 79.4977C106.399 91.9777 95.531 99.3632 85.5503 107.004C75.8348 114.442 65.9501 122.571 54.1577 122.98C42.1697 123.395 30.7769 117.413 21.3102 109.229C12.0739 101.245 5.24504 90.3182 1.94342 77.8431C-1.2923 65.617 -0.207901 52.7598 3.13931 40.5708C6.53896 28.1909 11.5232 15.8032 21.0328 8.32857C30.4816 0.901711 42.5921 0.950329 54.1577 0.469903Z" fill="#21BCD1"/>
</svg>
