<svg width="60" height="50" viewBox="0 0 60 50" fill="none" xmlns="http://www.w3.org/2000/svg">
<path fill-rule="evenodd" clip-rule="evenodd" d="M8.79118 0.0807386C6.52852 0.54921 4.69366 2.16795 3.93428 4.36572L3.66491 5.14514V20.1744V35.2037L3.98787 35.7532C4.16554 36.0554 4.48372 36.4345 4.69494 36.5955C5.60008 37.2859 3.91633 37.2426 29.8145 37.2426C56.4602 37.2426 54.2156 37.3199 55.1663 36.3692C56.1023 35.4332 56.0436 36.584 56.0079 19.8744L55.9762 5.02864L55.7134 4.33892C54.9713 2.39012 53.6674 1.07034 51.7445 0.32179L50.9664 0.018874L30.1118 0.00151482C18.6418 -0.00792217 9.0475 0.0277283 8.79118 0.0807386ZM31.009 5.33214C33.1923 5.78744 35.0618 7.6569 35.5171 9.84022C35.8275 11.3287 35.5077 12.9545 34.6334 14.3318C34.4244 14.6609 34.4251 14.6656 34.7138 14.8535C35.339 15.2604 36.6359 16.6001 37.1145 17.3335C38.0776 18.8093 38.4323 19.9954 38.5226 22.0418C38.5842 23.4394 38.5698 23.5987 38.3395 24.05C38.1731 24.3761 37.9353 24.6188 37.6295 24.7749C37.183 25.0027 36.9562 25.0094 29.8063 25.0094H22.4429L21.9585 24.7256C21.1763 24.2672 21.0345 23.8094 21.1181 22.0114C21.2147 19.9328 21.5396 18.8588 22.5377 17.32C23.0068 16.597 24.1225 15.4418 24.869 14.9064L25.2185 14.6557L25.0077 14.3277C23.4379 11.885 23.7322 8.92262 25.7417 6.93969C27.1997 5.50095 29.0746 4.92879 31.009 5.33214ZM29.0296 8.82336C28.4744 8.99322 27.7614 9.75599 27.6011 10.3515C27.3222 11.3872 27.7366 12.4758 28.6185 13.0241C29.2794 13.4349 30.4172 13.4181 31.0672 12.988C31.7944 12.5067 32.0924 11.9372 32.0924 11.0287C32.0924 10.1318 31.795 9.55106 31.1004 9.09144C30.6007 8.76068 29.6404 8.63637 29.0296 8.82336ZM28.5972 17.0157C27.6506 17.2462 26.8945 17.6821 26.1501 18.4264C25.3937 19.183 24.9662 19.9336 24.7416 20.9002L24.5987 21.5143H29.8205H35.0423L34.8995 20.9002C34.6757 19.937 34.2488 19.1851 33.4909 18.4185C32.1889 17.1016 30.3771 16.5823 28.5972 17.0157ZM42.2897 28.7391C42.8067 29.0029 43.2187 29.6741 43.2187 30.2522C43.2187 30.8303 42.8067 31.5015 42.2897 31.7653C41.8377 31.9958 41.6268 31.9998 29.8119 31.9998H17.7938L17.3291 31.7386C16.1566 31.0796 16.1447 29.4849 17.307 28.7813L17.7622 28.5058L29.7961 28.5052C41.6275 28.5046 41.8377 28.5086 42.2897 28.7391ZM0.899175 40.978C0.623755 41.1234 0.371985 41.3876 0.214468 41.6963C-0.0115534 42.1394 -0.0289128 42.3141 0.0266606 43.5874C0.0922535 45.0915 0.30278 45.899 0.89032 46.9015C1.62256 48.1512 2.96844 49.2361 4.40007 49.7306L5.17949 50H29.8205H54.4616L55.241 49.7306C56.6726 49.2361 58.0185 48.1512 58.7508 46.9015C59.3383 45.899 59.5488 45.0915 59.6144 43.5874C59.6701 42.3136 59.6527 42.1396 59.4263 41.6957C59.2607 41.3711 59.0224 41.1282 58.7171 40.9723C58.2599 40.739 58.096 40.7378 29.7961 40.7429C1.68943 40.748 1.32932 40.7509 0.899175 40.978Z" fill="#F1FCFF"/>
</svg>
