<svg width="21" height="20" viewBox="0 0 21 20" fill="none" xmlns="http://www.w3.org/2000/svg">
<g clip-path="url(#clip0_415_8764)">
<path d="M18.9927 0H2.93408C2.40239 0.00219364 1.89309 0.213612 1.51712 0.58821C1.14115 0.962808 0.928959 1.47024 0.926758 2L0.926758 18C0.928959 18.5298 1.14115 19.0372 1.51712 19.4118C1.89309 19.7864 2.40239 19.9978 2.93408 20H18.9927C19.5244 19.9978 20.0337 19.7864 20.4097 19.4118C20.7856 19.0372 20.9978 18.5298 21 18V2C20.9978 1.47024 20.7856 0.962808 20.4097 0.58821C20.0337 0.213612 19.5244 0.00219364 18.9927 0V0ZM6.8191 12.0542C7.245 12.2475 7.73056 12.2644 8.16896 12.1011C8.60737 11.9378 8.9627 11.6077 9.1568 11.1833H10.5452C10.3662 11.9138 9.92483 12.5537 9.30445 12.9819C8.68406 13.4101 7.92771 13.597 7.1784 13.5072C6.4291 13.4174 5.73879 13.0571 5.23801 12.4946C4.73723 11.932 4.46069 11.2061 4.46069 10.4542C4.46069 9.70222 4.73723 8.97633 5.23801 8.41377C5.73879 7.85121 6.4291 7.49097 7.1784 7.40117C7.92771 7.31137 8.68406 7.49825 9.30445 7.92645C9.92483 8.35465 10.3662 8.9945 10.5452 9.725H9.1568C9.03861 9.46659 8.85937 9.24055 8.6344 9.06621C8.40942 8.89186 8.14542 8.7744 7.86495 8.72387C7.58449 8.67334 7.29592 8.69123 7.02391 8.77603C6.7519 8.86083 6.50456 9.01001 6.30302 9.21081C6.10149 9.41161 5.95176 9.65805 5.86665 9.92906C5.78154 10.2001 5.76358 10.4876 5.8143 10.767C5.86502 11.0465 5.98291 11.3095 6.15789 11.5337C6.33288 11.7578 6.55975 11.9364 6.8191 12.0542ZM16.3079 12.7583C16.0454 12.9835 15.7453 13.1612 15.4213 13.2833C14.9582 13.4625 14.4584 13.5272 13.9646 13.4721C13.4709 13.417 12.9978 13.2435 12.586 12.9667V13.2833H11.323V4.475H12.5776V7.9C13.0255 7.59832 13.5442 7.41744 14.0831 7.375H14.3089C14.9369 7.37402 15.5501 7.56498 16.0657 7.9221C16.5814 8.27922 16.9747 8.78533 17.1926 9.37214C17.4105 9.95895 17.4425 10.5982 17.2843 11.2037C17.1261 11.8092 16.7853 12.3518 16.3079 12.7583ZM16.1214 10.4533C16.1265 10.6867 16.0848 10.9188 15.9986 11.136C15.9125 11.3531 15.7837 11.5509 15.6199 11.7178C15.456 11.8846 15.2603 12.0172 15.0443 12.1077C14.8283 12.1983 14.5964 12.2449 14.362 12.2449C14.1277 12.2449 13.8958 12.1983 13.6798 12.1077C13.4638 12.0172 13.2681 11.8846 13.1042 11.7178C12.9403 11.5509 12.8116 11.3531 12.7255 11.136C12.6393 10.9188 12.5976 10.6867 12.6027 10.4533C12.6127 9.99505 12.8025 9.5589 13.1313 9.23832C13.4602 8.91774 13.902 8.73822 14.362 8.73822C14.8221 8.73822 15.2639 8.91774 15.5927 9.23832C15.9216 9.5589 16.1114 9.99505 16.1214 10.4533Z" fill="#077685"/>
<g clip-path="url(#clip1_415_8764)">
<path d="M18.9927 0H2.93408C2.40239 0.00219364 1.89309 0.213612 1.51712 0.58821C1.14115 0.962808 0.928959 1.47024 0.926758 2L0.926758 18C0.928959 18.5298 1.14115 19.0372 1.51712 19.4118C1.89309 19.7864 2.40239 19.9978 2.93408 20H18.9927C19.5244 19.9978 20.0337 19.7864 20.4097 19.4118C20.7856 19.0372 20.9978 18.5298 21 18V2C20.9978 1.47024 20.7856 0.962808 20.4097 0.58821C20.0337 0.213612 19.5244 0.00219364 18.9927 0V0ZM6.8191 12.0542C7.245 12.2475 7.73056 12.2644 8.16896 12.1011C8.60737 11.9378 8.9627 11.6077 9.1568 11.1833H10.5452C10.3662 11.9138 9.92483 12.5537 9.30445 12.9819C8.68406 13.4101 7.92771 13.597 7.1784 13.5072C6.4291 13.4174 5.73879 13.0571 5.23801 12.4946C4.73723 11.932 4.46069 11.2061 4.46069 10.4542C4.46069 9.70222 4.73723 8.97633 5.23801 8.41377C5.73879 7.85121 6.4291 7.49097 7.1784 7.40117C7.92771 7.31137 8.68406 7.49825 9.30445 7.92645C9.92483 8.35465 10.3662 8.9945 10.5452 9.725H9.1568C9.03861 9.46659 8.85937 9.24055 8.6344 9.06621C8.40942 8.89186 8.14542 8.7744 7.86495 8.72387C7.58449 8.67334 7.29592 8.69123 7.02391 8.77603C6.7519 8.86083 6.50456 9.01001 6.30302 9.21081C6.10149 9.41161 5.95176 9.65805 5.86665 9.92906C5.78154 10.2001 5.76358 10.4876 5.8143 10.767C5.86502 11.0465 5.98291 11.3095 6.15789 11.5337C6.33288 11.7578 6.55975 11.9364 6.8191 12.0542ZM16.3079 12.7583C16.0454 12.9835 15.7453 13.1612 15.4213 13.2833C14.9582 13.4625 14.4584 13.5272 13.9646 13.4721C13.4709 13.417 12.9978 13.2435 12.586 12.9667V13.2833H11.323V4.475H12.5776V7.9C13.0255 7.59832 13.5442 7.41744 14.0831 7.375H14.3089C14.9369 7.37402 15.5501 7.56498 16.0657 7.9221C16.5814 8.27922 16.9747 8.78533 17.1926 9.37214C17.4105 9.95895 17.4425 10.5982 17.2843 11.2037C17.1261 11.8092 16.7853 12.3518 16.3079 12.7583ZM16.1214 10.4533C16.1265 10.6867 16.0848 10.9188 15.9986 11.136C15.9125 11.3531 15.7837 11.5509 15.6199 11.7178C15.456 11.8846 15.2603 12.0172 15.0443 12.1077C14.8283 12.1983 14.5964 12.2449 14.362 12.2449C14.1277 12.2449 13.8958 12.1983 13.6798 12.1077C13.4638 12.0172 13.2681 11.8846 13.1042 11.7178C12.9403 11.5509 12.8116 11.3531 12.7255 11.136C12.6393 10.9188 12.5976 10.6867 12.6027 10.4533C12.6127 9.99505 12.8025 9.5589 13.1313 9.23832C13.4602 8.91774 13.902 8.73822 14.362 8.73822C14.8221 8.73822 15.2639 8.91774 15.5927 9.23832C15.9216 9.5589 16.1114 9.99505 16.1214 10.4533Z" fill="#077685"/>
</g>
</g>
<defs>
<clipPath id="clip0_415_8764">
<rect x="0.926758" width="20.0733" height="20" rx="10" fill="white"/>
</clipPath>
<clipPath id="clip1_415_8764">
<rect x="0.926758" width="20.0733" height="20" rx="10" fill="white"/>
</clipPath>
</defs>
</svg>
