<svg width="50" height="50" viewBox="0 0 50 50" fill="none" xmlns="http://www.w3.org/2000/svg">
<path fill-rule="evenodd" clip-rule="evenodd" d="M3.53035 0.105701C1.85366 0.435014 0.428377 1.88991 0.103432 3.60388C-0.0344772 4.33109 -0.0344772 45.6862 0.103432 46.4134C0.437655 48.1765 1.86265 49.5944 3.62841 49.9209C3.98656 49.9871 9.3148 50.012 19.3984 49.9946L34.6274 49.9685L35.1904 49.7411C36.34 49.2768 37.3549 48.2611 37.8191 47.11L38.0454 46.5493L38.0749 40.6635C38.0912 37.4262 38.0743 34.7777 38.0372 34.7777C38.0002 34.7777 37.4815 35.2504 36.8847 35.828C36.1112 36.5767 35.603 36.9804 35.1158 37.2333C34.7397 37.4284 33.2681 37.9723 31.8453 38.442C29.3484 39.2662 29.2352 39.294 28.5886 39.2397C27.2791 39.1299 26.1069 38.3301 25.5316 37.1541C25.3253 36.7322 25.2538 36.4216 25.2215 35.8051C25.1798 35.0095 25.1855 34.9856 26.0814 32.297C26.837 30.029 27.0589 29.4759 27.4496 28.8867C27.7869 28.3781 29.3238 26.7784 33.0052 23.1041L38.0947 18.0245V14.8737V11.7228H32.8174C27.0073 11.7228 27.0908 11.7309 26.6575 11.1233L26.4232 10.7947L26.3964 5.39737L26.3696 0L15.1644 0.0107459C9.00158 0.0166073 3.76632 0.0592979 3.53035 0.105701ZM29.2068 4.39605V8.7921H33.6364H38.066L38.0237 8.27923C37.9666 7.58739 37.658 6.65631 37.3144 6.13953C37.1591 5.90595 35.9182 4.60706 34.5569 3.25298C32.4041 1.11181 31.9993 0.752604 31.4496 0.495288C30.8221 0.201632 30.0231 0 29.4865 0H29.2068V4.39605ZM46.1325 14.5996C45.5658 14.7767 44.9521 15.254 43.8097 16.4062L42.8344 17.3898L44.8832 19.4408C46.01 20.5688 46.9811 21.4918 47.0412 21.4918C47.2522 21.4918 49.4696 19.1038 49.705 18.623C50.8199 16.3452 48.5882 13.8318 46.1325 14.5996ZM28.4235 14.8247C29.469 15.35 29.469 16.8877 28.4235 17.4131C28.1062 17.5726 27.3838 17.5839 17.5558 17.584C7.19724 17.5842 7.02192 17.5811 6.64267 17.3876C6.20932 17.1664 5.86386 16.6036 5.86386 16.1189C5.86386 15.6491 6.20951 15.0727 6.62187 14.8549C6.97875 14.6665 7.22595 14.662 17.5353 14.658C27.3879 14.6541 28.1061 14.665 28.4235 14.8247ZM35.8974 24.3245L31.1126 29.1111L33.1621 31.1628C34.2894 32.2913 35.2562 33.2146 35.3106 33.2146C35.365 33.2146 37.5627 31.0606 40.1943 28.4281L44.9791 23.6415L42.9296 21.5898C41.8023 20.4613 40.8355 19.538 40.7811 19.538C40.7267 19.538 38.529 21.692 35.8974 24.3245ZM22.5633 20.6861C23.6089 21.2114 23.6089 22.7491 22.5633 23.2745C22.2484 23.4327 21.6642 23.4453 14.6258 23.4454C7.20378 23.4456 7.01919 23.441 6.64267 23.249C6.20932 23.0278 5.86386 22.465 5.86386 21.9803C5.86386 21.5105 6.20951 20.9341 6.62187 20.7163C6.97621 20.5293 7.21316 20.5234 14.6052 20.5194C21.6683 20.5155 22.2482 20.5277 22.5633 20.6861ZM22.5633 26.5475C23.6089 27.0728 23.6089 28.6105 22.5633 29.1359C22.2484 29.2941 21.6642 29.3067 14.6258 29.3068C7.20378 29.307 7.01919 29.3024 6.64267 29.1104C6.20932 28.8892 5.86386 28.3264 5.86386 27.8417C5.86386 27.3719 6.20951 26.7955 6.62187 26.5777C6.97621 26.3907 7.21316 26.3848 14.6052 26.3808C21.6683 26.3769 22.2482 26.3891 22.5633 26.5475ZM28.7724 33.4924C28.4128 34.5712 28.1328 35.5722 28.15 35.7166C28.1677 35.865 28.2993 36.0673 28.4524 36.1811L28.7235 36.3826L30.772 35.7048C31.8987 35.3321 32.8205 35.0035 32.8205 34.9746C32.8205 34.9457 32.0568 34.1591 31.1232 33.2265L29.426 31.531L28.7724 33.4924ZM22.5633 32.4089C23.6089 32.9342 23.6089 34.4719 22.5633 34.9973C22.2484 35.1555 21.6642 35.1681 14.6258 35.1682C7.20378 35.1684 7.01919 35.1638 6.64267 34.9718C6.20932 34.7506 5.86386 34.1878 5.86386 33.7031C5.86386 33.2333 6.20951 32.6569 6.62187 32.4391C6.97621 32.2521 7.21316 32.2462 14.6052 32.2422C21.6683 32.2383 22.2482 32.2505 22.5633 32.4089ZM28.4235 41.201C29.469 41.7263 29.469 43.264 28.4235 43.7894C28.114 43.9449 27.664 43.9602 23.3955 43.9602C18.1693 43.9602 18.2632 43.9716 17.8059 43.2866C17.3413 42.591 17.6135 41.5798 18.3675 41.201C18.677 41.0454 19.1269 41.0301 23.3955 41.0301C27.664 41.0301 28.114 41.0454 28.4235 41.201Z" fill="#F1FCFF"/>
</svg>
