<svg width="40" height="40" viewBox="0 0 40 40" fill="none" xmlns="http://www.w3.org/2000/svg">
<g clip-path="url(#clip0_130_1592)">
<path d="M23.2986 20C23.2986 22.1143 21.6228 23.8281 19.5556 23.8281C17.4883 23.8281 15.8125 22.1143 15.8125 20C15.8125 17.8857 17.4883 16.1719 19.5556 16.1719C21.6228 16.1719 23.2986 17.8857 23.2986 20Z" fill="#21bdd1"/>
<path d="M28.3093 13.2271C28.1294 12.7285 27.8424 12.2771 27.4694 11.9066C27.1071 11.5251 26.6661 11.2316 26.1782 11.0475C25.7825 10.8904 25.1881 10.7033 24.0933 10.6523C22.909 10.5971 22.5539 10.5852 19.5557 10.5852C16.5571 10.5852 16.202 10.5968 15.018 10.652C13.9232 10.7033 13.3285 10.8904 12.9331 11.0475C12.4452 11.2316 12.0039 11.5251 11.642 11.9066C11.269 12.2771 10.9819 12.7281 10.8017 13.2271C10.648 13.6318 10.4651 14.24 10.4153 15.3597C10.3612 16.5706 10.3496 16.9338 10.3496 20.0005C10.3496 23.0669 10.3612 23.4301 10.4153 24.6413C10.4651 25.761 10.648 26.3689 10.8017 26.7736C10.9819 27.2725 11.2687 27.7236 11.6417 28.0941C12.0039 28.4755 12.4449 28.7691 12.9328 28.9531C13.3285 29.1106 13.9232 29.2977 15.018 29.3486C16.202 29.4039 16.5568 29.4155 19.5554 29.4155C22.5542 29.4155 22.9093 29.4039 24.093 29.3486C25.1878 29.2977 25.7825 29.1106 26.1782 28.9531C27.1575 28.5668 27.9316 27.7751 28.3093 26.7736C28.463 26.3689 28.6459 25.761 28.6961 24.6413C28.7501 23.4301 28.7614 23.0669 28.7614 20.0005C28.7614 16.9338 28.7501 16.5706 28.6961 15.3597C28.6462 14.24 28.4633 13.6318 28.3093 13.2271ZM19.5557 25.8974C16.3709 25.8974 13.7892 23.2573 13.7892 20.0002C13.7892 16.743 16.3709 14.103 19.5557 14.103C22.7401 14.103 25.3218 16.743 25.3218 20.0002C25.3218 23.2573 22.7401 25.8974 19.5557 25.8974ZM25.5498 15.248C24.8056 15.248 24.2023 14.6309 24.2023 13.8698C24.2023 13.1087 24.8056 12.4916 25.5498 12.4916C26.294 12.4916 26.8973 13.1087 26.8973 13.8698C26.8971 14.6309 26.294 15.248 25.5498 15.248Z" fill="#21bdd1"/>
<path d="M19.5556 0C8.75697 0 0 8.95599 0 20C0 31.044 8.75697 40 19.5556 40C30.3541 40 39.1111 31.044 39.1111 20C39.1111 8.95599 30.3541 0 19.5556 0ZM30.717 24.7348C30.6627 25.9573 30.4726 26.792 30.1951 27.5226C29.6117 29.0652 28.4194 30.2847 26.911 30.8813C26.1969 31.1652 25.3805 31.3593 24.1854 31.4151C22.988 31.4709 22.6054 31.4844 19.5559 31.4844C16.506 31.4844 16.1237 31.4709 14.926 31.4151C13.7309 31.3593 12.9145 31.1652 12.2004 30.8813C11.4509 30.593 10.7723 30.141 10.2113 29.5566C9.64022 28.9832 9.1983 28.2889 8.91631 27.5226C8.63881 26.7923 8.44873 25.9573 8.39442 24.7351C8.33922 23.5101 8.32639 23.1189 8.32639 20C8.32639 16.8811 8.33922 16.4899 8.39412 15.2652C8.44843 14.0427 8.63821 13.208 8.91572 12.4774C9.1977 11.7111 9.63992 11.0168 10.2113 10.4434C10.772 9.85901 11.4509 9.40704 12.2001 9.11865C12.9145 8.83484 13.7306 8.64075 14.926 8.5849C16.1234 8.52905 16.506 8.51562 19.5556 8.51562C22.6051 8.51562 22.9877 8.52905 24.1851 8.58521C25.3805 8.64075 26.1966 8.83484 26.911 9.11835C27.6602 9.40674 28.3391 9.85901 28.9001 10.4434C29.4712 11.0172 29.9134 11.7111 30.1951 12.4774C30.4729 13.208 30.6627 14.0427 30.7173 15.2652C30.7719 16.4899 30.7847 16.8811 30.7847 20C30.7847 23.1189 30.7719 23.5101 30.717 24.7348Z" fill="#21bdd1"/>
</g>
<defs>
<clipPath id="clip0_130_1592">
<rect width="39.1111" height="40" fill="white"/>
</clipPath>
</defs>
</svg>
