<svg width="40" height="40" viewBox="0 0 40 40" fill="none" xmlns="http://www.w3.org/2000/svg">
<path d="M19.6669 0C8.8683 0 0.111328 8.95599 0.111328 20C0.111328 31.044 8.8683 40 19.6669 40C30.4655 40 39.2224 31.044 39.2224 20C39.2224 8.95599 30.4655 0 19.6669 0ZM13.9843 30.2344H9.2216V15.5801H13.9843V30.2344ZM11.6031 13.5791H11.572C9.97385 13.5791 8.94021 12.4539 8.94021 11.0477C8.94021 9.60968 10.0055 8.51562 11.6347 8.51562C13.2639 8.51562 14.2665 9.60968 14.2976 11.0477C14.2976 12.4539 13.2639 13.5791 11.6031 13.5791ZM31.1574 30.2344H26.3954V22.3947C26.3954 20.4245 25.7058 19.0808 23.9826 19.0808C22.6669 19.0808 21.8834 19.9872 21.539 20.8621C21.4131 21.1752 21.3824 21.6129 21.3824 22.0508V30.2344H16.62C16.62 30.2344 16.6823 16.955 16.62 15.5801H21.3824V17.655C22.0152 16.6565 23.1476 15.2362 25.6745 15.2362C28.8079 15.2362 31.1574 17.3306 31.1574 21.8317V30.2344Z" fill="#21bcd1"/>
</svg>
