<svg width="70" height="72" viewBox="0 0 70 72" fill="none" xmlns="http://www.w3.org/2000/svg">
<g filter="url(#filter0_d_12_17610)">
<path d="M23.2107 20.9866L23.2104 20.9875L20.3701 33.1314C20.3701 33.1315 20.37 33.1317 20.37 33.1318C18.9328 39.2623 19.1115 44.0262 21.3581 47.6432C23.6041 51.2595 27.7972 53.536 33.9119 54.9877L38.7785 56.1465C38.7787 56.1465 38.779 56.1466 38.7793 56.1466C40.4889 56.5593 42.091 56.8273 43.5839 56.9471C48.2332 57.3931 51.9214 56.5361 54.7601 54.1069C57.5746 51.6983 59.4368 47.8414 60.6693 42.5446L63.5095 30.4305C64.9466 24.3007 64.7756 19.5292 62.5289 15.9081C60.2823 12.287 56.0806 10.0107 49.9363 8.57359L49.936 8.57354L45.0978 7.44365C45.0974 7.44357 45.0971 7.44348 45.0967 7.4434C40.1959 6.28435 36.1714 6.1515 32.9021 7.27977C29.5984 8.41991 27.1736 10.8094 25.4114 14.4531C24.5085 16.2896 23.7974 18.4929 23.2107 20.9866Z" stroke="#292D32" stroke-width="1.5" stroke-linecap="round" stroke-linejoin="round"/>
<path d="M43.9303 56.6139C44.106 56.4948 44.1874 56.2778 44.1333 56.0725C44.0792 55.8672 43.9013 55.7185 43.6897 55.7015C42.271 55.588 40.732 55.3321 39.0718 54.9313L39.0703 54.931L34.2009 53.7716L34.2006 53.7715C28.2052 52.3482 24.4067 50.1825 22.4199 46.9837C20.4336 43.7855 20.1783 39.4257 21.5871 33.4167L21.5872 33.4165L24.4275 21.2729C25.0023 18.8299 25.6873 16.7246 26.5342 15.0025C26.6178 14.8325 26.5982 14.6299 26.4835 14.4791C26.3688 14.3284 26.1787 14.2554 25.9926 14.2906C24.8914 14.4989 23.7392 14.8246 22.5433 15.2037L22.5433 15.2037L22.5381 15.2054L17.9615 16.7117C17.961 16.7118 17.9606 16.712 17.9601 16.7121C12.1604 18.5823 8.36105 21.0885 6.52865 24.6886C4.69651 28.2881 4.9003 32.8449 6.7701 38.6442L6.77033 38.6449L10.4803 50.0935L10.4804 50.0939C12.3649 55.8934 14.871 59.6999 18.4669 61.5397C22.0629 63.3797 26.6128 63.1832 32.4126 61.3133L32.4155 61.3123L36.9937 59.8055C36.994 59.8055 36.9942 59.8054 36.9944 59.8053C39.7732 58.8985 42.0812 57.8665 43.9303 56.6139Z" stroke="#292D32" stroke-linecap="round" stroke-linejoin="round"/>
<path d="M36.6358 24.7234L50.693 28.2884" stroke="#04A9CD" stroke-width="4.23753" stroke-linecap="round" stroke-linejoin="round"/>
<path d="M33.7953 35.9402L42.2007 38.085" stroke="#04A9CD" stroke-width="4.23753" stroke-linecap="round" stroke-linejoin="round"/>
</g>
<defs>
<filter id="filter0_d_12_17610" x="-4" y="0" width="77.5615" height="77.5615" filterUnits="userSpaceOnUse" color-interpolation-filters="sRGB">
<feFlood flood-opacity="0" result="BackgroundImageFix"/>
<feColorMatrix in="SourceAlpha" type="matrix" values="0 0 0 0 0 0 0 0 0 0 0 0 0 0 0 0 0 0 127 0" result="hardAlpha"/>
<feOffset dy="4"/>
<feGaussianBlur stdDeviation="2"/>
<feComposite in2="hardAlpha" operator="out"/>
<feColorMatrix type="matrix" values="0 0 0 0 0 0 0 0 0 0 0 0 0 0 0 0 0 0 0.25 0"/>
<feBlend mode="normal" in2="BackgroundImageFix" result="effect1_dropShadow_12_17610"/>
<feBlend mode="normal" in="SourceGraphic" in2="effect1_dropShadow_12_17610" result="shape"/>
</filter>
</defs>
</svg>
