<svg width="70" height="70" viewBox="0 0 70 70" fill="none" xmlns="http://www.w3.org/2000/svg">
<path d="M52.024 21.6354C52.0833 21.6453 52.1435 21.6491 52.2036 21.647C56.6854 21.4846 60.2507 17.8149 60.2831 13.2811L60.2832 13.2811V13.2747C60.2832 8.66693 56.5516 4.90181 51.9103 4.90181C47.2713 4.90181 43.5374 8.63568 43.5374 13.2747C43.5374 17.8146 47.1074 21.4846 51.5881 21.647C51.6481 21.6491 51.7083 21.6453 51.7676 21.6354C51.8441 21.6226 51.9475 21.6226 52.024 21.6354Z" stroke="#04A9CD" stroke-width="1.79" stroke-linecap="round" stroke-linejoin="round"/>
<path d="M49.1858 41.8529C53.1566 42.5195 57.5332 41.8239 60.6055 39.766C64.6922 37.0415 64.6922 32.578 60.6055 29.8535C57.5042 27.7956 53.0697 27.1 49.0988 27.7956" stroke="#292D32" stroke-width="2" stroke-linecap="round" stroke-linejoin="round"/>
<path d="M17.271 21.647C17.3311 21.6491 17.3913 21.6453 17.4506 21.6354C17.5271 21.6226 17.6305 21.6226 17.707 21.6354C17.7663 21.6453 17.8265 21.6491 17.8865 21.647C22.3672 21.4846 25.9372 17.8146 25.9372 13.2747C25.9372 8.63568 22.2033 4.90181 17.5643 4.90181C12.923 4.90181 9.19143 8.66693 9.19143 13.2747H9.1914L9.19145 13.2811C9.22383 17.8149 12.7892 21.4846 17.271 21.647Z" stroke="#04A9CD" stroke-width="1.79" stroke-linecap="round" stroke-linejoin="round"/>
<path d="M20.2888 41.8529C16.318 42.5195 11.9414 41.8239 8.8691 39.766C4.78236 37.0415 4.78236 32.578 8.8691 29.8535C11.9704 27.7956 16.4049 27.1 20.3757 27.7956" stroke="#292D32" stroke-width="2" stroke-linecap="round" stroke-linejoin="round"/>
<path d="M34.6337 43.2863C34.6908 43.2958 34.7488 43.2998 34.8067 43.2981C39.2994 43.1679 42.8604 39.4601 42.8928 34.932L42.8928 34.932V34.9256C42.8928 30.3179 39.1612 26.5528 34.5199 26.5528C29.8809 26.5528 26.1471 30.2866 26.1471 34.9256C26.1471 39.4655 29.717 43.1356 34.1977 43.2979C34.2578 43.3001 34.3179 43.2962 34.3772 43.2863C34.4537 43.2736 34.5572 43.2736 34.6337 43.2863Z" stroke="#04A9CD" stroke-width="1.79" stroke-linecap="round" stroke-linejoin="round"/>
<path d="M26.3465 51.5335C22.2597 54.258 22.2597 58.7215 26.3465 61.446C30.9839 64.5473 38.5777 64.5473 43.2151 61.446C47.3019 58.7215 47.3019 54.258 43.2151 51.5335C38.6067 48.4612 30.9839 48.4612 26.3465 51.5335Z" stroke="#292D32" stroke-width="2" stroke-linecap="round" stroke-linejoin="round"/>
</svg>
