<svg width="18" height="17" viewBox="0 0 18 17" fill="none" xmlns="http://www.w3.org/2000/svg">
<path d="M15.677 16.6069L9.96198 10.8909C7.41965 12.6984 3.91642 12.2562 1.90285 9.87383C-0.110711 7.49141 0.0371394 3.96349 2.24298 1.7579C4.44824 -0.448656 7.97651 -0.597146 10.3594 1.41631C12.7422 3.42977 13.1846 6.93334 11.377 9.4759L17.092 15.1919L15.678 16.6059L15.677 16.6069ZM6.48498 1.99988C4.58868 1.99946 2.95267 3.33057 2.56745 5.18733C2.18224 7.04409 3.15369 8.91617 4.89366 9.67014C6.63362 10.4241 8.66388 9.85273 9.75522 8.30195C10.8466 6.75117 10.699 4.64721 9.40198 3.2639L10.007 3.8639L9.32498 3.1839L9.31298 3.1719C8.56477 2.41907 7.54637 1.99702 6.48498 1.99988Z" fill="#21BCD1"/>
</svg>
