<svg width="70" height="70" viewBox="0 0 70 70" fill="none" xmlns="http://www.w3.org/2000/svg">
<path d="M30.0543 5.52663L30.0516 5.52764L15.591 10.9758C15.5906 10.9759 15.5902 10.976 15.5898 10.9762C13.6945 11.6852 12.0286 13.1327 10.8406 14.8461C9.65258 16.5595 8.88353 18.624 8.88353 20.6366V42.1717C8.88353 44.0803 9.50725 46.2136 10.4647 48.1171C11.4224 50.021 12.765 51.7967 14.2991 52.9432L14.2996 52.9435L26.76 62.2453C26.7603 62.2456 26.7606 62.2458 26.7609 62.246C29.008 63.935 31.9323 64.7502 34.8097 64.7502C37.6872 64.7502 40.6115 63.935 42.8586 62.246C42.8589 62.2458 42.8592 62.2456 42.8595 62.2453L55.3199 52.9435L55.3204 52.9432C56.8544 51.7967 58.1971 50.021 59.1548 48.1171C60.1123 46.2136 60.736 44.0803 60.736 42.1717V20.6366C60.736 18.611 59.968 16.5396 58.7795 14.8216C57.5911 13.1037 55.9245 11.6557 54.0285 10.9468L39.5662 5.52702L39.5662 5.52699L39.5579 5.52396C38.1847 5.02313 36.4598 4.78955 34.788 4.78955C33.1174 4.78955 31.4033 5.0228 30.0543 5.52663Z" stroke="#292D32" stroke-width="2" stroke-linecap="round" stroke-linejoin="round"/>
<mask id="path-2-outside-1_12_17596" maskUnits="userSpaceOnUse" x="24.2305" y="24.6072" width="21" height="16" fill="black">
<rect fill="white" x="24.2305" y="24.6072" width="21" height="16"/>
<path d="M26.2305 34.4039L30.8969 39.0703L43.36 26.6072"/>
</mask>
<path d="M27.2629 33.3716C26.6927 32.8014 25.7683 32.8014 25.1981 33.3716C24.628 33.9417 24.628 34.8661 25.1981 35.4363L27.2629 33.3716ZM30.8969 39.0703L29.8645 40.1027C30.4347 40.6729 31.3591 40.6729 31.9293 40.1027L30.8969 39.0703ZM44.3924 27.6396C44.9626 27.0694 44.9626 26.145 44.3924 25.5749C43.8222 25.0047 42.8978 25.0047 42.3276 25.5749L44.3924 27.6396ZM25.1981 35.4363L29.8645 40.1027L31.9293 38.038L27.2629 33.3716L25.1981 35.4363ZM31.9293 40.1027L44.3924 27.6396L42.3276 25.5749L29.8645 38.038L31.9293 40.1027Z" fill="#04A9CD" mask="url(#path-2-outside-1_12_17596)"/>
</svg>
