<svg width="26" height="25" viewBox="0 0 26 25" fill="none" xmlns="http://www.w3.org/2000/svg">
<g clip-path="url(#clip0_130_2350)">
<path d="M12.9996 0C6.25045 0 0.777344 5.5975 0.777344 12.5C0.777344 19.4025 6.25045 25 12.9996 25C19.7487 25 25.2218 19.4025 25.2218 12.5C25.2218 5.5975 19.7487 0 12.9996 0ZM9.44793 18.8965H6.47126V9.73759H9.44793V18.8965ZM7.95969 8.48694H7.94029C6.94142 8.48694 6.2954 7.7837 6.2954 6.90479C6.2954 6.00605 6.96119 5.32227 7.97946 5.32227C8.99773 5.32227 9.62436 6.00605 9.64375 6.90479C9.64375 7.7837 8.99773 8.48694 7.95969 8.48694ZM20.1812 18.8965H17.2049V13.9967C17.2049 12.7653 16.7739 11.9255 15.6969 11.9255C14.8746 11.9255 14.3849 12.492 14.1696 13.0388C14.0909 13.2345 14.0717 13.508 14.0717 13.7817V18.8965H11.0953C11.0953 18.8965 11.1342 10.5968 11.0953 9.73759H14.0717V11.0344C14.4673 10.4103 15.175 9.52263 16.7543 9.52263C18.7127 9.52263 20.1812 10.8316 20.1812 13.6448V18.8965Z" fill="#005DC9"/>
</g>
<defs>
<clipPath id="clip0_130_2350">
<rect width="24.4444" height="25" fill="white" transform="translate(0.777344)"/>
</clipPath>
</defs>
</svg>
