<svg width="41" height="40" viewBox="0 0 41 40" fill="none" xmlns="http://www.w3.org/2000/svg">
<g clip-path="url(#clip0_130_1596)">
<path d="M20.1113 0C9.06732 0 0.111328 8.95599 0.111328 20C0.111328 31.044 9.06732 40 20.1113 40C31.1553 40 40.1113 31.044 40.1113 20C40.1113 8.95599 31.1553 0 20.1113 0ZM29.2431 15.5939C29.252 15.7907 29.2562 15.9885 29.2562 16.1871C29.2562 22.2531 24.6389 29.248 16.195 29.2484H16.1953H16.195C13.6025 29.2484 11.1901 28.4885 9.15857 27.1863C9.51776 27.2287 9.88336 27.2498 10.2535 27.2498C12.4044 27.2498 14.3838 26.5161 15.9551 25.2847C13.9456 25.2475 12.2512 23.9203 11.6665 22.0963C11.9464 22.15 12.2341 22.1793 12.5292 22.1793C12.9482 22.1793 13.3541 22.1228 13.7399 22.0175C11.6393 21.597 10.057 19.7406 10.057 17.5177C10.057 17.4969 10.057 17.4783 10.0576 17.4591C10.6762 17.803 11.3836 18.0099 12.1368 18.0331C10.9042 17.2107 10.0939 15.8047 10.0939 14.212C10.0939 13.371 10.3213 12.583 10.7156 11.9046C12.9794 14.6823 16.3625 16.5091 20.1779 16.701C20.0991 16.3647 20.0585 16.0144 20.0585 15.6543C20.0585 13.1201 22.1145 11.0641 24.6496 11.0641C25.9701 11.0641 27.1627 11.6223 28.0004 12.5146C29.0463 12.3083 30.0283 11.9263 30.9155 11.4005C30.5721 12.4719 29.8446 13.371 28.8967 13.9395C29.8254 13.8284 30.7104 13.5822 31.5328 13.2166C30.9185 14.1373 30.1394 14.946 29.2431 15.5939Z" fill="#21bdd1"/>
</g>
<defs>
<clipPath id="clip0_130_1596">
<rect width="40" height="40" fill="white" transform="translate(0.111328)"/>
</clipPath>
</defs>
</svg>
