<svg width="10" height="10" viewBox="0 0 10 10" fill="none" xmlns="http://www.w3.org/2000/svg">
<path d="M7.08317 8.75V7.91667C7.08317 7.47464 6.90758 7.05072 6.59502 6.73816C6.28245 6.4256 5.85853 6.25 5.4165 6.25H2.08317C1.64114 6.25 1.21722 6.4256 0.904659 6.73816C0.592099 7.05072 0.416504 7.47464 0.416504 7.91667V8.75" stroke="#21BCD1" stroke-width="0.8" stroke-linecap="round" stroke-linejoin="round"/>
<path d="M3.75016 4.58333C4.67064 4.58333 5.41683 3.83714 5.41683 2.91667C5.41683 1.99619 4.67064 1.25 3.75016 1.25C2.82969 1.25 2.0835 1.99619 2.0835 2.91667C2.0835 3.83714 2.82969 4.58333 3.75016 4.58333Z" stroke="#21BCD1" stroke-width="0.8" stroke-linecap="round" stroke-linejoin="round"/>
<path d="M9.5835 8.74955V7.91621C9.58322 7.54693 9.46031 7.1882 9.23407 6.89634C9.00782 6.60448 8.69105 6.39603 8.3335 6.30371" stroke="#21BCD1" stroke-width="0.8" stroke-linecap="round" stroke-linejoin="round"/>
<path d="M6.6665 1.30371C7.02501 1.3955 7.34277 1.604 7.56969 1.89634C7.7966 2.18868 7.91977 2.54822 7.91977 2.91829C7.91977 3.28837 7.7966 3.64791 7.56969 3.94025C7.34277 4.23259 7.02501 4.44109 6.6665 4.53288" stroke="#21BCD1" stroke-width="0.8" stroke-linecap="round" stroke-linejoin="round"/>
</svg>
