<svg width="61" height="48" viewBox="0 0 61 48" fill="none" xmlns="http://www.w3.org/2000/svg">
<g clip-path="url(#clip0_130_929)">
<path d="M9.86313 21.03C13.1394 21.03 15.8031 18.3663 15.8031 15.09C15.8031 11.8137 13.1394 9.15002 9.86313 9.15002C6.58684 9.15002 3.92313 11.8137 3.92313 15.09C3.92313 18.3663 6.58684 21.03 9.86313 21.03ZM51.4431 21.03C54.7194 21.03 57.3831 18.3663 57.3831 15.09C57.3831 11.8137 54.7194 9.15002 51.4431 9.15002C48.1669 9.15002 45.5031 11.8137 45.5031 15.09C45.5031 18.3663 48.1669 21.03 51.4431 21.03ZM54.4131 24H48.4731C46.8396 24 45.3639 24.659 44.2873 25.7263C48.0276 27.7775 50.6821 31.4807 51.2575 35.88H57.3831C59.0259 35.88 60.3531 34.5528 60.3531 32.91V29.94C60.3531 26.6637 57.6894 24 54.4131 24ZM30.6531 24C36.3982 24 41.0481 19.3501 41.0481 13.605C41.0481 7.85993 36.3982 3.21002 30.6531 3.21002C24.908 3.21002 20.2581 7.85993 20.2581 13.605C20.2581 19.3501 24.908 24 30.6531 24ZM37.7811 26.97H37.0108C35.0803 27.8981 32.9363 28.455 30.6531 28.455C28.3699 28.455 26.2353 27.8981 24.2955 26.97H23.5251C17.6223 26.97 12.8331 31.7591 12.8331 37.662V40.335C12.8331 42.7946 14.8286 44.79 17.2881 44.79H44.0181C46.4777 44.79 48.4731 42.7946 48.4731 40.335V37.662C48.4731 31.7591 43.684 26.97 37.7811 26.97ZM17.019 25.7263C15.9423 24.659 14.4666 24 12.8331 24H6.89313C3.61684 24 0.953125 26.6637 0.953125 29.94V32.91C0.953125 34.5528 2.28034 35.88 3.92313 35.88H10.0395C10.6242 31.4807 13.2786 27.7775 17.019 25.7263Z" fill="#F1FCFF"/>
</g>
<defs>
<clipPath id="clip0_130_929">
<rect width="59.4" height="47.52" fill="white" transform="translate(0.953125 0.23999)"/>
</clipPath>
</defs>
</svg>
