<svg width="57" height="57" viewBox="0 0 57 57" fill="none" xmlns="http://www.w3.org/2000/svg">
<path d="M28.5 29.78C35.7653 29.78 41.655 23.8903 41.655 16.625C41.655 9.35969 35.7653 3.47 28.5 3.47C21.2347 3.47 15.345 9.35969 15.345 16.625C15.345 23.8903 21.2347 29.78 28.5 29.78Z" stroke="#292D32" stroke-width="2.56" stroke-linecap="round" stroke-linejoin="round"/>
<path d="M35.7335 47.0695L35.7334 47.0695L35.7316 47.0825L35.2805 50.2871C35.2805 50.2873 35.2805 50.2876 35.2804 50.2879C35.1683 51.0741 35.3792 51.8245 35.9049 52.3502C36.4308 52.8761 37.1815 53.0869 37.968 52.9746L41.1726 52.5235L41.1726 52.5236L41.1856 52.5216C41.5106 52.4703 41.8612 52.3433 42.1668 52.1905C42.4639 52.042 42.7855 51.8357 43.0257 51.5813L51.4242 43.1828C52.1929 42.4141 52.881 41.4691 52.9937 40.33C53.1105 39.1497 52.5934 37.9763 51.4242 36.8071C50.2649 35.6478 49.0962 35.1377 47.9192 35.2587C46.785 35.3752 45.8412 36.0622 45.0725 36.8309L36.6649 45.2385C36.4234 45.4799 36.2186 45.7926 36.0662 46.094C35.9138 46.3953 35.7853 46.7413 35.7335 47.0695Z" stroke="#292D32" stroke-width="1.56" stroke-miterlimit="10" stroke-linecap="round" stroke-linejoin="round"/>
<path d="M44.9646 38.0422C44.7141 37.7916 44.3261 37.7415 44.02 37.92C43.7139 38.0986 43.5667 38.4611 43.6615 38.8025C44.4473 41.6311 46.6482 43.832 49.4768 44.6177C49.8182 44.7126 50.1806 44.5653 50.3592 44.2593C50.5378 43.9532 50.4876 43.5652 50.2371 43.3146L44.9646 38.0422Z" stroke="#292D32" stroke-width="1.56" stroke-miterlimit="10" stroke-linecap="round" stroke-linejoin="round"/>
<mask id="path-4-outside-1_177_8221" maskUnits="userSpaceOnUse" x="5.09863" y="32.625" width="34" height="23" fill="black">
<rect fill="white" x="5.09863" y="32.625" width="34" height="23"/>
<path d="M8.09863 52.25C8.09863 43.0588 17.2424 35.625 28.4999 35.625C30.9699 35.625 33.3449 35.9812 35.5536 36.6462"/>
</mask>
<path d="M5.53863 52.25C5.53863 53.6638 6.68478 54.81 8.09863 54.81C9.51248 54.81 10.6586 53.6638 10.6586 52.25H5.53863ZM34.8156 39.0975C36.1694 39.5051 37.5973 38.7381 38.0049 37.3843C38.4125 36.0304 37.6455 34.6025 36.2917 34.1949L34.8156 39.0975ZM10.6586 52.25C10.6586 44.939 18.1397 38.185 28.4999 38.185V33.065C16.3452 33.065 5.53863 41.1785 5.53863 52.25H10.6586ZM28.4999 38.185C30.7239 38.185 32.85 38.5058 34.8156 39.0975L36.2917 34.1949C33.8397 33.4567 31.2159 33.065 28.4999 33.065V38.185Z" fill="#292D32" mask="url(#path-4-outside-1_177_8221)"/>
</svg>
